<svg xmlns="http://www.w3.org/2000/svg" xmlns:xlink="http://www.w3.org/1999/xlink" version="1.1" height="234" viewBox="-10 -10 83 90">
    <defs>
        <linearGradient id="SvgjsLinearGradientiRguGe71m" gradientUnits="userSpaceOnUse" x1="7.256250000000014" y1="92.75625" x2="92.74374999999999" y2="7.268749999999995">
            <stop stop-color="#49a1f3" offset="0.05"></stop>
            <stop stop-color="#0c61b0" offset="0.95"></stop>
        </linearGradient>
        <linearGradient id="SvgjsLinearGradientE8J6LoBXXV" gradientUnits="userSpaceOnUse" x1="-13.514999999999997" y1="-0.34499999999999703" x2="12.874999999999991" y2="-26.734999999999992">
            <stop stop-color="#49a1f3" offset="0.05"></stop>
            <stop stop-color="#0c61b0" offset="0.95"></stop>
        </linearGradient>
    </defs>
    <g transform="translate(-7.350643511882257, -3.8881038229157103) scale(0.7737520045603405)" fill="url(#SvgjsLinearGradientiRguGe71m)">
        <path d="M50 95c-1.7 0-3.3-.4-4.8-1.3L14.3 76c-3-1.7-4.8-4.9-4.8-8.3V32.3c0-3.4 1.8-6.6 4.8-8.3L45.2 6.3c3-1.7 6.6-1.7 9.6 0L85.7 24c3 1.7 4.8 4.9 4.8 8.3v35.5c0 3.4-1.8 6.6-4.8 8.3L54.8 93.7c-1.5.9-3.1 1.3-4.8 1.3zm0-88c-1.3 0-2.6.3-3.8 1L15.3 25.8c-2.3 1.3-3.8 3.8-3.8 6.5v35.5c0 2.7 1.4 5.2 3.8 6.5L46.2 92c2.3 1.3 5.2 1.3 7.5 0l30.9-17.7c2.3-1.3 3.8-3.8 3.8-6.5V32.3c0-2.7-1.4-5.2-3.8-6.5L53.8 8c-1.2-.6-2.5-1-3.8-1zm0 78.1c-1.3 0-2.7-.3-3.8-1l-24-13.8c-2.4-1.4-3.8-3.9-3.8-6.6V36.2c0-2.7 1.5-5.2 3.8-6.6l24-13.8c2.4-1.4 5.3-1.4 7.7 0l24 13.8c2.4 1.4 3.8 3.9 3.8 6.6v27.5c0 2.7-1.5 5.2-3.8 6.6l-24 13.8c-1.2.7-2.6 1-3.9 1zm0-68.2c-1 0-1.9.2-2.8.7l-24 13.8c-1.7 1-2.8 2.8-2.8 4.8v27.5c0 2 1.1 3.8 2.8 4.8l24 13.8c1.7 1 3.9 1 5.6 0l24-13.8c1.7-1 2.8-2.8 2.8-4.8V36.2c0-2-1.1-3.8-2.8-4.8l-24-13.8c-.9-.4-1.8-.7-2.8-.7z"></path>
    </g>
    <g transform="translate(31.572902688624907, 47.77485043666215)" fill="url(#SvgjsLinearGradientE8J6LoBXXV)">
        <path d="M5.87 -18.83L11.39 -18.83L11.39 -24.87L7.39 -24.87C6.19 -25.94 5.09 -26.66 4.09 -27.02C3.09 -27.38 1.86 -27.56 0.39 -27.56C-1.44 -27.56 -3.15 -27.2 -4.74 -26.46C-6.33 -25.73 -7.71 -24.73 -8.89 -23.47C-10.07 -22.2 -11 -20.72 -11.67 -19.02C-12.35 -17.32 -12.69 -15.51 -12.69 -13.57C-12.69 -12.27 -12.54 -11.02 -12.23 -9.83C-11.92 -8.63 -11.48 -7.51 -10.93 -6.47C-10.37 -5.43 -9.69 -4.48 -8.9 -3.62C-8.11 -2.77 -7.23 -2.04 -6.26 -1.43C-5.29 -0.82 -4.24 -0.35 -3.12 -0.02C-2.01 0.32 -0.83 0.48 0.39 0.48C1.84 0.48 3.2 0.27 4.45 -0.14C5.71 -0.56 6.84 -1.13 7.85 -1.86C8.85 -2.58 9.71 -3.44 10.43 -4.44C11.14 -5.43 11.68 -6.51 12.05 -7.68L6.3 -9.28C6.09 -8.75 5.79 -8.23 5.41 -7.74C5.03 -7.24 4.58 -6.81 4.08 -6.43C3.57 -6.05 3.01 -5.74 2.39 -5.51C1.77 -5.28 1.11 -5.16 0.39 -5.16C-0.63 -5.16 -1.57 -5.38 -2.43 -5.83C-3.28 -6.27 -4.02 -6.88 -4.64 -7.64C-5.26 -8.4 -5.75 -9.29 -6.1 -10.31C-6.45 -11.33 -6.62 -12.41 -6.62 -13.57C-6.62 -14.71 -6.44 -15.79 -6.09 -16.81C-5.73 -17.82 -5.24 -18.72 -4.61 -19.48C-3.99 -20.25 -3.25 -20.86 -2.39 -21.31C-1.54 -21.75 -0.61 -21.98 0.39 -21.98C1.07 -21.98 1.72 -21.89 2.34 -21.72C2.96 -21.54 3.53 -21.26 4.07 -20.86C4.61 -20.46 5.21 -19.79 5.87 -18.83Z"></path>
    </g>
</svg>