<svg xmlns="http://www.w3.org/2000/svg" xmlns:xlink="http://www.w3.org/1999/xlink" version="1.1" height="234" viewBox="0 0 462 70">
    <defs id="SvgjsDefs55686">
        <linearGradient id="SvgjsLinearGradientiRguGe71m" gradientUnits="userSpaceOnUse" x1="7.256250000000014" y1="92.75625" x2="92.74374999999999" y2="7.268749999999995">
            <stop id="SvgjsStop55689" stop-color="#49a1f3" offset="0.05"></stop>
            <stop id="SvgjsStop55690" stop-color="#0c61b0" offset="0.95"></stop>
        </linearGradient>
        <linearGradient id="SvgjsLinearGradientE8J6LoBXXV" gradientUnits="userSpaceOnUse" x1="-13.514999999999997" y1="-0.34499999999999703" x2="12.874999999999991" y2="-26.734999999999992">
            <stop id="SvgjsStop55693" stop-color="#49a1f3" offset="0.05"></stop>
            <stop id="SvgjsStop55694" stop-color="#0c61b0" offset="0.95"></stop>
        </linearGradient>
    </defs>
    <g transform="translate(-7.350643511882257, -3.8881038229157103) scale(0.7737520045603405)" fill="url(#SvgjsLinearGradientiRguGe71m)">
        <path d="M50 95c-1.7 0-3.3-.4-4.8-1.3L14.3 76c-3-1.7-4.8-4.9-4.8-8.3V32.3c0-3.4 1.8-6.6 4.8-8.3L45.2 6.3c3-1.7 6.6-1.7 9.6 0L85.7 24c3 1.7 4.8 4.9 4.8 8.3v35.5c0 3.4-1.8 6.6-4.8 8.3L54.8 93.7c-1.5.9-3.1 1.3-4.8 1.3zm0-88c-1.3 0-2.6.3-3.8 1L15.3 25.8c-2.3 1.3-3.8 3.8-3.8 6.5v35.5c0 2.7 1.4 5.2 3.8 6.5L46.2 92c2.3 1.3 5.2 1.3 7.5 0l30.9-17.7c2.3-1.3 3.8-3.8 3.8-6.5V32.3c0-2.7-1.4-5.2-3.8-6.5L53.8 8c-1.2-.6-2.5-1-3.8-1zm0 78.1c-1.3 0-2.7-.3-3.8-1l-24-13.8c-2.4-1.4-3.8-3.9-3.8-6.6V36.2c0-2.7 1.5-5.2 3.8-6.6l24-13.8c2.4-1.4 5.3-1.4 7.7 0l24 13.8c2.4 1.4 3.8 3.9 3.8 6.6v27.5c0 2.7-1.5 5.2-3.8 6.6l-24 13.8c-1.2.7-2.6 1-3.9 1zm0-68.2c-1 0-1.9.2-2.8.7l-24 13.8c-1.7 1-2.8 2.8-2.8 4.8v27.5c0 2 1.1 3.8 2.8 4.8l24 13.8c1.7 1 3.9 1 5.6 0l24-13.8c1.7-1 2.8-2.8 2.8-4.8V36.2c0-2-1.1-3.8-2.8-4.8l-24-13.8c-.9-.4-1.8-.7-2.8-.7z"></path>
    </g>
    <g transform="translate(31.572902688624907, 47.77485043666215)" fill="url(#SvgjsLinearGradientE8J6LoBXXV)">
        <path d="M5.87 -18.83L11.39 -18.83L11.39 -24.87L7.39 -24.87C6.19 -25.94 5.09 -26.66 4.09 -27.02C3.09 -27.38 1.86 -27.56 0.39 -27.56C-1.44 -27.56 -3.15 -27.2 -4.74 -26.46C-6.33 -25.73 -7.71 -24.73 -8.89 -23.47C-10.07 -22.2 -11 -20.72 -11.67 -19.02C-12.35 -17.32 -12.69 -15.51 -12.69 -13.57C-12.69 -12.27 -12.54 -11.02 -12.23 -9.83C-11.92 -8.63 -11.48 -7.51 -10.93 -6.47C-10.37 -5.43 -9.69 -4.48 -8.9 -3.62C-8.11 -2.77 -7.23 -2.04 -6.26 -1.43C-5.29 -0.82 -4.24 -0.35 -3.12 -0.02C-2.01 0.32 -0.83 0.48 0.39 0.48C1.84 0.48 3.2 0.27 4.45 -0.14C5.71 -0.56 6.84 -1.13 7.85 -1.86C8.85 -2.58 9.71 -3.44 10.43 -4.44C11.14 -5.43 11.68 -6.51 12.05 -7.68L6.3 -9.28C6.09 -8.75 5.79 -8.23 5.41 -7.74C5.03 -7.24 4.58 -6.81 4.08 -6.43C3.57 -6.05 3.01 -5.74 2.39 -5.51C1.77 -5.28 1.11 -5.16 0.39 -5.16C-0.63 -5.16 -1.57 -5.38 -2.43 -5.83C-3.28 -6.27 -4.02 -6.88 -4.64 -7.64C-5.26 -8.4 -5.75 -9.29 -6.1 -10.31C-6.45 -11.33 -6.62 -12.41 -6.62 -13.57C-6.62 -14.71 -6.44 -15.79 -6.09 -16.81C-5.73 -17.82 -5.24 -18.72 -4.61 -19.48C-3.99 -20.25 -3.25 -20.86 -2.39 -21.31C-1.54 -21.75 -0.61 -21.98 0.39 -21.98C1.07 -21.98 1.72 -21.89 2.34 -21.72C2.96 -21.54 3.53 -21.26 4.07 -20.86C4.61 -20.46 5.21 -19.79 5.87 -18.83Z"></path>
    </g>
    <g transform="translate(269.8285442530829, 48.37148028023218)" fill="#ffffff">
        <path d="M-169.7 0C-169.14 0 -168.73 -0.13 -168.48 -0.38C-168.23 -0.63 -168.1 -1.04 -168.1 -1.6L-168.1 -6.9C-168.1 -7.46 -168.23 -7.87 -168.48 -8.12C-168.73 -8.37 -169.14 -8.5 -169.7 -8.5L-178.65 -8.5C-179.57 -8.5 -180.25 -8.67 -180.69 -9.01C-181.14 -9.35 -181.36 -9.89 -181.36 -10.63L-181.36 -21.22C-181.36 -21.96 -181.14 -22.52 -180.69 -22.89C-180.25 -23.26 -179.57 -23.45 -178.65 -23.45L-169.7 -23.45C-169.14 -23.45 -168.73 -23.57 -168.48 -23.82C-168.23 -24.08 -168.1 -24.48 -168.1 -25.05L-168.1 -30.43C-168.1 -30.99 -168.23 -31.4 -168.48 -31.65C-168.73 -31.91 -169.14 -32.03 -169.7 -32.03L-180.56 -32.03C-184.27 -32.03 -187.02 -31.28 -188.81 -29.79C-190.61 -28.29 -191.5 -26 -191.5 -22.91L-191.5 -9.08C-191.5 -5.99 -190.61 -3.71 -188.81 -2.22C-187.02 -0.74 -184.27 0 -180.56 0Z M-131.71 -8.41L-131.71 -23.58C-131.71 -24.94 -131.91 -26.18 -132.31 -27.29C-132.71 -28.41 -133.42 -29.36 -134.45 -30.16C-135.47 -30.96 -136.88 -31.59 -138.67 -32.03C-140.47 -32.48 -142.74 -32.7 -145.5 -32.7C-148.26 -32.7 -150.54 -32.48 -152.35 -32.03C-154.16 -31.59 -155.58 -30.96 -156.6 -30.16C-157.63 -29.36 -158.34 -28.41 -158.74 -27.29C-159.14 -26.18 -159.34 -24.94 -159.34 -23.58L-159.34 -8.41C-159.34 -7.04 -159.14 -5.81 -158.74 -4.69C-158.34 -3.58 -157.63 -2.63 -156.6 -1.85C-155.58 -1.06 -154.16 -0.44 -152.35 0C-150.54 0.44 -148.26 0.67 -145.5 0.67C-142.74 0.67 -140.47 0.44 -138.67 0C-136.88 -0.44 -135.47 -1.06 -134.45 -1.85C-133.42 -2.63 -132.71 -3.58 -132.31 -4.69C-131.91 -5.81 -131.71 -7.04 -131.71 -8.41ZM-149.24 -10.01L-149.24 -21.98C-149.24 -22.54 -149.02 -23.02 -148.57 -23.42C-148.13 -23.82 -147.1 -24.02 -145.5 -24.02C-143.9 -24.02 -142.88 -23.82 -142.43 -23.42C-141.99 -23.02 -141.76 -22.54 -141.76 -21.98L-141.76 -10.01C-141.76 -9.42 -141.99 -8.92 -142.43 -8.52C-142.88 -8.12 -143.9 -7.92 -145.5 -7.92C-147.1 -7.92 -148.13 -8.12 -148.57 -8.52C-149.02 -8.92 -149.24 -9.42 -149.24 -10.01Z M-113.38 0C-112.82 0 -112.41 -0.13 -112.16 -0.38C-111.91 -0.63 -111.78 -1.04 -111.78 -1.6L-111.78 -17.26L-109.15 -12.41C-108.89 -11.91 -108.57 -11.54 -108.2 -11.32C-107.83 -11.1 -107.36 -10.99 -106.8 -10.99L-105.02 -10.99C-104.45 -10.99 -103.99 -11.1 -103.62 -11.32C-103.24 -11.54 -102.93 -11.91 -102.66 -12.41L-100.03 -17.26L-100.03 -1.6C-100.03 -1.04 -99.91 -0.63 -99.66 -0.38C-99.4 -0.13 -99 0 -98.43 0L-91.58 0C-91.02 0 -90.61 -0.13 -90.36 -0.38C-90.11 -0.63 -89.98 -1.04 -89.98 -1.6L-89.98 -30.43C-89.98 -30.99 -90.11 -31.4 -90.36 -31.65C-90.61 -31.91 -91.02 -32.03 -91.58 -32.03L-98.79 -32.03C-99.26 -32.03 -99.66 -31.93 -99.97 -31.72C-100.28 -31.51 -100.57 -31.17 -100.83 -30.7L-104.79 -23.45C-104.94 -23.18 -105.07 -22.99 -105.17 -22.87C-105.28 -22.75 -105.42 -22.69 -105.6 -22.69L-106 -22.69C-106.17 -22.69 -106.31 -22.75 -106.42 -22.87C-106.52 -22.99 -106.65 -23.18 -106.8 -23.45L-110.8 -30.7C-111.07 -31.17 -111.36 -31.51 -111.67 -31.72C-111.98 -31.93 -112.37 -32.03 -112.85 -32.03L-120.01 -32.03C-120.57 -32.03 -120.98 -31.91 -121.23 -31.65C-121.49 -31.4 -121.61 -30.99 -121.61 -30.43L-121.61 -1.6C-121.61 -1.04 -121.49 -0.63 -121.23 -0.38C-120.98 -0.13 -120.57 0 -120.01 0Z M-70.89 0C-70.33 0 -69.92 -0.13 -69.67 -0.38C-69.42 -0.63 -69.29 -1.04 -69.29 -1.6L-69.29 -8.99L-64.18 -8.99C-60.14 -8.99 -57.38 -9.79 -55.9 -11.39C-54.42 -12.99 -53.68 -15.08 -53.68 -17.66L-53.68 -23.36C-53.68 -25.94 -54.42 -28.03 -55.9 -29.63C-57.38 -31.23 -60.14 -32.03 -64.18 -32.03L-77.79 -32.03C-78.35 -32.03 -78.76 -31.91 -79.01 -31.65C-79.26 -31.4 -79.39 -30.99 -79.39 -30.43L-79.39 -1.6C-79.39 -1.04 -79.26 -0.63 -79.01 -0.38C-78.76 -0.13 -78.35 0 -77.79 0ZM-69.38 -23.71L-65.38 -23.71C-64.52 -23.71 -63.95 -23.49 -63.69 -23.05C-63.42 -22.6 -63.29 -22.1 -63.29 -21.53L-63.29 -19.17C-63.29 -18.61 -63.42 -18.11 -63.69 -17.66C-63.95 -17.22 -64.52 -16.99 -65.38 -16.99L-69.38 -16.99Z M-17.33 -8.41L-17.33 -30.43C-17.33 -30.99 -17.45 -31.4 -17.71 -31.65C-17.96 -31.91 -18.37 -32.03 -18.93 -32.03L-25.69 -32.03C-26.26 -32.03 -26.66 -31.91 -26.92 -31.65C-27.17 -31.4 -27.29 -30.99 -27.29 -30.43L-27.29 -10.14C-27.29 -9.55 -27.52 -9.05 -27.96 -8.65C-28.41 -8.25 -29.41 -8.05 -30.99 -8.05C-32.53 -8.05 -33.52 -8.25 -33.97 -8.65C-34.41 -9.05 -34.63 -9.55 -34.63 -10.14L-34.63 -30.43C-34.63 -30.99 -34.76 -31.4 -35.01 -31.65C-35.27 -31.91 -35.67 -32.03 -36.24 -32.03L-43.22 -32.03C-43.78 -32.03 -44.19 -31.91 -44.44 -31.65C-44.7 -31.4 -44.82 -30.99 -44.82 -30.43L-44.82 -8.41C-44.82 -7.04 -44.62 -5.81 -44.22 -4.69C-43.82 -3.58 -43.11 -2.63 -42.09 -1.85C-41.06 -1.06 -39.66 -0.44 -37.88 0C-36.1 0.44 -33.83 0.67 -31.08 0.67C-28.32 0.67 -26.05 0.44 -24.27 0C-22.49 -0.44 -21.09 -1.06 -20.06 -1.85C-19.04 -2.63 -18.33 -3.58 -17.93 -4.69C-17.53 -5.81 -17.33 -7.04 -17.33 -8.41Z M14.35 0C14.91 0 15.32 -0.13 15.57 -0.38C15.82 -0.63 15.95 -1.04 15.95 -1.6L15.95 -6.9C15.95 -7.46 15.82 -7.87 15.57 -8.12C15.32 -8.37 14.91 -8.5 14.35 -8.5L5.41 -8.5C4.49 -8.5 3.8 -8.67 3.36 -9.01C2.91 -9.35 2.69 -9.89 2.69 -10.63L2.69 -21.22C2.69 -21.96 2.91 -22.52 3.36 -22.89C3.8 -23.26 4.49 -23.45 5.41 -23.45L14.35 -23.45C14.91 -23.45 15.32 -23.57 15.57 -23.82C15.82 -24.08 15.95 -24.48 15.95 -25.05L15.95 -30.43C15.95 -30.99 15.82 -31.4 15.57 -31.65C15.32 -31.91 14.91 -32.03 14.35 -32.03L3.49 -32.03C-0.22 -32.03 -2.97 -31.28 -4.76 -29.79C-6.55 -28.29 -7.45 -26 -7.45 -22.91L-7.45 -9.08C-7.45 -5.99 -6.55 -3.71 -4.76 -2.22C-2.97 -0.74 -0.22 0 3.49 0Z M47.67 0C48.23 0 48.64 -0.13 48.89 -0.38C49.15 -0.63 49.27 -1.04 49.27 -1.6L49.27 -6.81C49.27 -7.37 49.15 -7.78 48.89 -8.03C48.64 -8.28 48.23 -8.41 47.67 -8.41L35.39 -8.41L35.39 -12.23L44.07 -12.23C44.63 -12.23 45.04 -12.36 45.29 -12.61C45.54 -12.86 45.67 -13.27 45.67 -13.84L45.67 -18.6C45.67 -19.16 45.54 -19.57 45.29 -19.82C45.04 -20.07 44.63 -20.2 44.07 -20.2L35.39 -20.2L35.39 -23.62L47.67 -23.62C48.23 -23.62 48.64 -23.75 48.89 -24C49.15 -24.25 49.27 -24.66 49.27 -25.23L49.27 -30.43C49.27 -30.99 49.15 -31.4 48.89 -31.65C48.64 -31.91 48.23 -32.03 47.67 -32.03L27.03 -32.03C26.46 -32.03 26.06 -31.91 25.8 -31.65C25.55 -31.4 25.43 -30.99 25.43 -30.43L25.43 -1.6C25.43 -1.04 25.55 -0.63 25.8 -0.38C26.06 -0.13 26.46 0 27.03 0Z M67.25 0C67.81 0 68.22 -0.13 68.47 -0.38C68.72 -0.63 68.85 -1.04 68.85 -1.6L68.85 -16.28L76.45 -7.07L76.45 -1.6C76.45 -1.04 76.58 -0.63 76.83 -0.38C77.08 -0.13 77.49 0 78.06 0L84.73 0C85.29 0 85.7 -0.13 85.95 -0.38C86.21 -0.63 86.33 -1.04 86.33 -1.6L86.33 -30.43C86.33 -30.99 86.21 -31.4 85.95 -31.65C85.7 -31.91 85.29 -32.03 84.73 -32.03L78.06 -32.03C77.49 -32.03 77.08 -31.91 76.83 -31.65C76.58 -31.4 76.45 -30.99 76.45 -30.43L76.45 -20.95L67.82 -30.83C67.44 -31.28 67.05 -31.59 66.64 -31.77C66.24 -31.94 65.76 -32.03 65.2 -32.03L60.57 -32.03C60.01 -32.03 59.6 -31.91 59.35 -31.65C59.1 -31.4 58.97 -30.99 58.97 -30.43L58.97 -1.6C58.97 -1.04 59.1 -0.63 59.35 -0.38C59.6 -0.13 60.01 0 60.57 0Z M112.05 0C112.61 0 113.02 -0.13 113.27 -0.38C113.52 -0.63 113.65 -1.04 113.65 -1.6L113.65 -23.45L120.19 -23.45C120.75 -23.45 121.16 -23.57 121.41 -23.82C121.66 -24.08 121.79 -24.48 121.79 -25.05L121.79 -30.43C121.79 -30.99 121.66 -31.4 121.41 -31.65C121.16 -31.91 120.75 -32.03 120.19 -32.03L96.7 -32.03C96.13 -32.03 95.73 -31.91 95.47 -31.65C95.22 -31.4 95.1 -30.99 95.1 -30.43L95.1 -25.05C95.1 -24.48 95.22 -24.08 95.47 -23.82C95.73 -23.57 96.13 -23.45 96.7 -23.45L103.24 -23.45L103.24 -1.6C103.24 -1.04 103.36 -0.63 103.62 -0.38C103.87 -0.13 104.28 0 104.84 0Z M152.8 0C153.36 0 153.77 -0.13 154.02 -0.38C154.27 -0.63 154.4 -1.04 154.4 -1.6L154.4 -6.81C154.4 -7.37 154.27 -7.78 154.02 -8.03C153.77 -8.28 153.36 -8.41 152.8 -8.41L140.52 -8.41L140.52 -12.23L149.19 -12.23C149.76 -12.23 150.17 -12.36 150.42 -12.61C150.67 -12.86 150.8 -13.27 150.8 -13.84L150.8 -18.6C150.8 -19.16 150.67 -19.57 150.42 -19.82C150.17 -20.07 149.76 -20.2 149.19 -20.2L140.52 -20.2L140.52 -23.62L152.8 -23.62C153.36 -23.62 153.77 -23.75 154.02 -24C154.27 -24.25 154.4 -24.66 154.4 -25.23L154.4 -30.43C154.4 -30.99 154.27 -31.4 154.02 -31.65C153.77 -31.91 153.36 -32.03 152.8 -32.03L132.16 -32.03C131.59 -32.03 131.18 -31.91 130.93 -31.65C130.68 -31.4 130.55 -30.99 130.55 -30.43L130.55 -1.6C130.55 -1.04 130.68 -0.63 130.93 -0.38C131.18 -0.13 131.59 0 132.16 0Z M174.15 -24.02L177.49 -24.02C178.26 -24.02 178.78 -23.82 179.05 -23.42C179.31 -23.02 179.45 -22.53 179.45 -21.93L179.45 -20.42C179.45 -19.83 179.31 -19.33 179.05 -18.93C178.78 -18.53 178.26 -18.33 177.49 -18.33L174.15 -18.33ZM172.55 0C173.11 0 173.52 -0.13 173.77 -0.38C174.03 -0.63 174.15 -1.04 174.15 -1.6L174.15 -10.32L180.38 -10.32C181 -10.32 181.44 -10.17 181.69 -9.85C181.95 -9.54 182.07 -9.06 182.07 -8.41L182.07 -1.6C182.07 -1.04 182.2 -0.63 182.45 -0.38C182.7 -0.13 183.11 0 183.67 0L190.57 0C191.13 0 191.54 -0.13 191.79 -0.38C192.05 -0.63 192.17 -1.04 192.17 -1.6L192.17 -11.03C192.17 -12.9 191.67 -14.4 190.68 -15.53C189.69 -16.65 188.39 -17.31 186.79 -17.48C187.71 -17.87 188.35 -18.5 188.72 -19.38C189.09 -20.25 189.28 -21.31 189.28 -22.56L189.28 -24.6C189.28 -26.8 188.65 -28.58 187.39 -29.96C186.13 -31.34 183.84 -32.03 180.51 -32.03L165.7 -32.03C165.14 -32.03 164.73 -31.91 164.48 -31.65C164.22 -31.4 164.1 -30.99 164.1 -30.43L164.1 -1.6C164.1 -1.04 164.22 -0.63 164.48 -0.38C164.73 -0.13 165.14 0 165.7 0Z"></path>
    </g>
</svg>